<mxfile host="Electron" modified="2024-05-22T08:49:54.384Z" agent="Mozilla/5.0 (X11; Linux x86_64) AppleWebKit/537.36 (KHTML, like Gecko) draw.io/24.4.0 Chrome/120.0.6099.109 Electron/28.1.0 Safari/537.36" etag="WzT7OPbbYz3L1Oke5jcm" version="24.4.0" type="device">
  <diagram name="Page-1" id="0vbAru05EYEyx-hmrW0Z">
    <mxGraphModel dx="2640" dy="1950" grid="0" gridSize="10" guides="1" tooltips="1" connect="1" arrows="1" fold="1" page="1" pageScale="1" pageWidth="3300" pageHeight="4681" math="0" shadow="0">
      <root>
        <mxCell id="0" />
        <mxCell id="1" parent="0" />
        <mxCell id="VPYLfWboq6FFPKXyFIXK-1" value="" style="shape=image;verticalLabelPosition=bottom;labelBackgroundColor=default;verticalAlign=top;aspect=fixed;imageAspect=0;image=data:image/png,iVBORw0KGgoAAAANSUhEUgAAA00AAANfCAYAAAAFHTa8AAAABHNCSVQICAgIfAhkiAAAABl0RVh0U29mdHdhcmUAZ25vbWUtc2NyZWVuc2hvdO8Dvz4AAAAudEVYdENyZWF0aW9uIFRpbWUAV2VkIDIyIE1heSAyMDI0IDEwOjQ4OjE1IEFNIENFU1R5UF8/AAAgAElEQVR4nOzdedhVdb3w/w8zMqjJkAgakyEoBxCVFNQcEjkCaUFoYse5y+txSHNO9ChqWnYcIo8YiIImqaSAkfP0gAQqiiGKiEgKDqjIKJPevz965Aex17qnPdx736/XdXEV67v2Wp88nuTdd+111ykrKysLAAAAMqpb6AEAAABqMtEEAACQQjQBAACkEE0AAAApRBMAAEAK0QQAAJBCNAEAAKQQTQAAAClEEwAAQArRBAAAkEI0AQAApBBNAAAAKUQTAABACtEEAACQQjQBAACkEE0AAAApRBMAAEAK0QQAAJBCNAEAAKQQTQAAAClEEwAAQArRBAAAkEI0AQAApBBNAAAAKUQTAABACtEEAACQQjQBAACkEE0AAAApRBMAAEAK0QQAAJBCNAEAAKQQTQAAAClEEwAAQArRBAAAkEI0AQAApBBNAAAAKUQTAABACtEEAACQQjQBAACkEE0AAAApRBMAAEAK0QQAAJBCNAEAAKQQTQAAAClEEwAAQArRBAAAkEI0AQAApBBNAAAAKUQTAABACtEEAACQQjQBAACkEE0AAAApRBMAAEAK0QQAAJBCNAEAAKQQTQAAAClEEwAAQArRBAAAkEI0AQAApBBNAAAAKUQTAABACtEEAACQon6hByh1GzZsKPQIAABkSb169aJ+fX+Erm38XzxHHn744bjqqqviH//4R6FHAQAgi3r27Bm//vWv4+ijjy70KORJnbKysrJCD1Fqnn/++fj+979f6DEAAMihOXPmRK9evQo9BnngO005MG7cuEKPAABAjt1zzz2FHoE8EU058OGHHxZ6BAAAcsyf+WoP0ZQDvXv3LvQIAADkmD/z1R6+05QjRx55ZDz99NOFHgMAgBzp0qVL3HrrrdG/f/9Cj0KOiaYcmjRpUrzyyiuFHgMAgCy499574/3339/mWKdOneLNN9+MBg0aFGgq8kE0AQBAOd5///3YY489Mq698MILcfDBB+d5IvLJd5qybNmyZTF06NBo3rx57LbbbnHZZZcVeiQAAKpp2bJlVVqjNPjhtlk2ZMiQmDlzZkRErFmzJm644Yb48ssv45ZbbinwZAAAQFXYacqi5557bkswbe3WW28twDQAAEA2iKYsWrBgQZXWAACAmks0AQAApBBNAAAAKUQTAABACtEEAACQQjQBAACkEE0AAAApRBMAAEAK0QQAAJBCNAEAAKQQTQAAAClEEwAAQArRBAAAkEI0AQAApBBNAAAAKUQTAABACtEEAACQQjQBAACkEE0AAAApRBMAAEAK0QQAAJBCNAEAAKQQTQAAAClEEwAAQArRBAAAkEI0AQAApBBNAAAAKUQTAABACtEEAACQQjQBAACkEE0AAAApRBMAAEAK0QQAAJBCNAEAAKQQTQAAAClEEwAAQArRBAAAkEI0AQAApBBNAAAAKUQTAABACtEEAACQQjQBAACkEE0AAAApRBMAAEAK0QQAAJBCNAEAAKQQTQAAAClEEwAAQArRBAAAkEI0AQAApBBNAAAAKUQTAABACtEEAACQQjQBAACkEE0AAAApRBMAAEAK0QQAAJBCNAEAAKQQTQAAAClEEwAAQArRBAAAkEI0AQAApBBNAAAAKUQTAABACtEEAACQQjQBAACkEE0AAAApRBMAAEAK0QQAAJBCNAEAAKQQTQAAAClEEwAAQArRBAAAkEI0AQAApBBNAAAAKUQTAABACtEEAACQQjQBAACkEE0AAAApRBMAAEAK0QQAAJBCNAEAAKQQTQAAAClEEwAAQArRBAAAkEI0AQAApBBNAAAAKUQTAABACtEEAACQQjQBAACkEE0AAAApRBMAAEAK0QQAAJBCNAEAAKQQTQAAAClEEwAAQArRBAAAkEI0AQAApBBNAAAAKUQTAABACtEEAACQQjQBAACkEE0AAAApRBMAAEAK0QQAAJBCNAEAAKQQTQAAAClEEwAAQArRBAAAkEI0AQAApBBNAAAAKUQTAABACtEEAACQQjQBAACkEE0AAAApRBMAAEAK0QQAAJBCNAEAAKQQTQAAAClEEwAAQArRBAAAkEI0AQAApBBNAAAAKUQTAABACtEEAACQQjQBAACkEE0AAAApRBMAAEAK0QQAAJBCNAEAAKQQTQAAAClEEwAAQArRBAAAkEI0AQAApBBNAAAAKUQTAABACtEEAACQQjQBAACkEE0AAAApRBMAAEAK0QQAAJBCNAEAAKQQTQAAAClEEwAAQArRBAAAkEI0AQAApBBNAAAAKUQTAABACtEEAACQQjQBAACkEE0AAAApRBMAAEAK0QQAAJBCNAEAAKQQTQAAAClEEwAAQArRBAAAkEI0AdRAmzdvLvQIAMD/I5oAaoAxY8bEwIEDo3Xr1tGkSZNo0KBB7LrrrvGrX/2q0KMBQK1Xv9ADANRm8+bNi4svvjj+9re/bbf28ccfx/XXXx+vvfZaPPTQQ7HDDjsUYEIAwE4TwL9Zs2ZNXu5z8803R/fu3TMG09amTZsWRx11VF5mAgC2J5oAIuLuu++Ogw8+OFq1ahXNmzePxo0bx/HHHx9ffPFFTu530003xQUXXFDh86dPnx433HBDTmYBANKJJqBWW7x4cRx11FFxyimnxPTp0+PTTz+NiIgNGzbEn//85zj44INjxYoVWb3nvffeGxdddFGlP3f33XdndQ4AoGJEE1BrzZkzJw444IB48sknE8+ZN29enHDCCVm751NPPRUnnXRSlT67YMGCeOmll7I2CwBQMaIJqLVOO+20LTtLaR5//PF47LHHqn2/efPmxfHHH1/uebvsskvi2uTJk6s9BwBQOaIJqJXOOeeceO211yp8fnWj6dNPP43jjz8+Pvvss8RzWrduHa+//nosXLgw8RzRBAD5J5qAWufPf/5zjBo1qlKfGTduXLXuefrpp8cbb7yRuL7ffvvFokWLonv37rHLLrvEgAEDMp43b968mDt3brVmAQAqRzQBRWfcuHFxwgknxFlnnVXpnZdly5bFOeecU+l7rlq1Km688cZKfy7iX7tDaXO2a9cuJk6cGM2aNdty7Ic//GHq9QCA/BFNQNH45z//GQcccECceuqpMXHixLjjjjvi2GOPjSFDhlT4GmeffXYsX748cb1///6Ja3/84x8rNe830l4VXr9+/Zg4cWJ06tRpm+Np0VSZxwoBgOoTTUDRGDp0aMa3x02aNCn+93//t9zP33zzzfHwww8nrp911lkxYcKExPVFixbF22+/XbFh/5/x48fH3//+98T1iRMnRt++fbc7vuuuu8b++++f8TPvvPNOpWYAAKpHNAFFYcaMGTF79uzE9XvuuSf185s3b45rrrkmcX2fffaJ3//+99GqVavUV4LPnz+//GG3kvZI30UXXRQ//vGPE9c7d+6c8fiiRYsqNQMAUD2iCSgK5cXKrFmz4sUXX0xc/9Of/hRffPFF4vqoUaOiXr16ERFx8cUXJ5735ptvljPpttdMmrtZs2Zx6aWXpn7+3x/Z+8a6devigw8+qPAcAED1iCagKDRo0KDcc8aPH5+4dt999yWujRw5Mg499NAtv+/WrVvUrZv5vx4rutP01VdfpX6X6dJLL039eUwRydEU4RE9AMgn0QQUhfr165d7zj333BPr1q3b7vjbb78dTzzxRMbPdOzYMa644optjtWtWze6du2a8fyKRtMNN9wQS5cuzbi22267lbvLFJH8eF6ER/QAIJ9EE1AUKrLTtH79+ozfbUrbZTrxxBMzHu/WrVvG4xV5PG/FihWp32W69NJLtzwKmMZOEwDUDKIJKArf+973KnRepmj605/+lHh+UjQl7TR9+eWXsXDhwtQZbrjhhli9enXidSv6c6LatGkTO+64Y8a1Qu40bdiwIebMmVPpNwkCQLESTUBR+M53vpP6goZvzJo1K5YsWbLl94899ljirsyRRx4ZXbp0ybiWtNMUkf6I3nvvvRe/+c1vEtcr8lje1pJ2mwq103TfffdFhw4donfv3tGlS5c45phj4uOPPy7ILACQL6IJKBo33nhjTJgwIU4++eTo06dP4nlbP0JXlUfzItKjKe0RvbTH8vr06RM/+9nPEtczqUmvHf/nP/8Zp5xySnz44Ydbjk2bNi1++ctf5n0WAMgn0QQUleHDh8e4cePiD3/4Q+I53+wEffHFF4mP5jVr1qzK0ZS00/T666/HHXfckfi5yu4yRSTvNK1atSo++uijSl+vOp5++unYtGnTdsfvv//+vM4BAPkmmoCilPSdo4j/P2ruu++++PrrrzOec+KJJ6a+XKJevXqVfhlE2ivGjzrqqDj22GMT15PUpJdBbP3Y49a+/vrrWLFiRV5nAYB8Ek1AUWrSpEnio2vfRFNVXgCxtcq8dnz27NmpOy5V2WWKqFmvHU/74cA777xzHicBgPwSTUDRStoJmj9/fsyZMydefPHFjOs9evSIgw8+uMrXX7du3Xa7PBMmTEi8zpAhQ+Kwww4r936Z1KSdpqRo2mmnnaJOnTp5nQUA8kk0AUUrKWpWrlwZ//u//5v4uZ/+9KfVun7Eto/olZWVxb333pt4blV3mSIidt9992jSpEnGtZqy02SXCYBSJ5qAopUWNZMmTUpcq8ijeeVdf+tH9O69997EoPjJT34SvXv3rtD9ktSU146LJgBqK9EEFK20qEl6McFxxx0Xbdu2rdD1K/KyiYhI3WUaPnx4he6VZrfddst4fO3atdW+dmWIJgBqK9EEFK20qElS0UfzIiIaNGgQe+21V8a1bx7PW7BgQTzxxBMZz2nfvn0MGjSo0jP+u6+++irj8fr161f72pUhmgCorUQTULTS3qCXSZs2bWLIkCGVukfayyYiIm6//fbEz2ZjlykiYvPmzRmP16tXLyvXr6ik3TvRBECpE01AUVu1alWFz63MLtM3kqJp7dq18Ze//CVuu+22xM9mK5pqwk7T119/nfjXWjQBUOpEE1DUKvOShYq+AGJraY8AXnvttYlr/fv3jy5dulT6fpnUhJ0mP6MJgNpMNAFFbcGCBRU6r2/fvtGrV69KXz/tZROvvvpq4to555xT6XslSdppEk0AkB+iCShqS5curdB5VdllikiPprR7HXPMMVW6XyZJO035fDwvLZq+9a1v5W0OACgE0QQUrSVLlsSGDRvKPa9evXpV+j5TRETDhg0r9ZhdnTp14uqrr67SvZLYaQKAwhJNQNGq6EsgLrjggthpp52qfJ/K7DZdc801iT+MtqoWLlyY8XhN2WkSTQCUOtEEFK2WLVtW6JwRI0ZU6z4V/XlQ3bp1iyuuuKJa9/p3zz33XKxbty7jWtOmTbN6rzSiCYDaTDQBRatNmzblvj1vxIgR0bx582rdp6I7TWlv06uq0aNHJ65973vfy/r9kogmAGoz0QQUtSOPPDJxbYcddohzzz232vfo0aNHuefceeedcdxxx1X7XltbuHBhTJw4MXH9v/7rv7J6vzSiCYDaTDQBRS0tmr797W9n5R777LNPfPe7301cP+GEE+KMM87Iyr22NmPGjMS1IUOGZO0/X0UkRVOdOnWq9X0xACgGogkoakceeWR07Ngx41rPnj2zdp/vf//7iWsDBw7M2n229sknnySutWrVKif3TJIUTXaZAKgNRBNQ9G6++ebtjtWrV6/aL4DYWtpjfmm7UNUxYMCAxLWKvAQjm0QTALWZaAKK3uDBg+ONN96Is846K4466qg4/fTTY8GCBbHvvvtm7R577713XHPNNdsdP/zww2O//fbL2n221r179zj++OMzrh1xxBE5uWcS0QRAbZa/H/IBkEPdunWL22+/Paf3GDFiRHzwwQcxfvz42LRpUxx33HExduzYnN7znnvuicWLF8esWbO2HLv22mvj0EMPzel9/51oAqA2E00AlTB69OjU14BnW8OGDePvf/97PPbYY7F8+fLo169fdOjQIW/3/4ZoAqA2E00AReDoo48u6P1FEwC1me80AVCu3XbbLePxPffcM8+TAED+iSYAynXKKadkPN6/f/88TwIA+SeaACjXJZdcEpdcckk0bNgwIiI6d+4cEydOzOobCgGgphJNAFTIDTfcEBs2bIiPP/44Fi5cGMOGDSv0SACQF6IJgEpp3bp1oUcAgLzy9jyg2t58882YM2dObNq0KU4++eRCjwMAkFV2moAq27RpU5x33nnRrVu3GD58eJxyyinRvn37mD9/fqFHAwDIGtEEVNpdd90VAwcOjCZNmsRtt922zdqSJUvi6quvLtBkAADZJ5qACvvrX/8avXv3jtNOOy3++te/xubNmzOe98ADD8SyZcvyPB0AQG6IJqBc7777bgwfPjwGDhwYc+bMqdBnXn/99RxPBQCQH14EAST6+OOP4+KLL44JEyZEWVlZpT771Vdf5WgqAID8Ek1ARER8/vnn8corr2z59cILL8Qnn3xSpWs1btw4jjjiiCxPCABQGKIJarHZs2fH2LFj47nnnou33347a9e97777onHjxlm7HgBAIYkmqIWWLl0aI0eOjNGjR2f92t///vfjRz/6UdavCwBQKKIJaplrr702Ro4cGRs3bsz6tXfdddd49tlns35dAIBCEk1QS4wbNy4uueSSWL58ec7ucfjhh+fs2gAAheKV41AL/Nd//Veceuqp1Q6mDh06xFVXXRX16tXLuP6tb32rWtcHAKiJRBOUuAsuuCDGjx9frWsMHz481q5dG++++26cf/75ia8T32WXXap1HwCAmkg0QYmbOXNmlT97zDHHxJw5c2LChAnRpEmTiPjXq8mT2GkCAEqR7zRBiavsz1rq1atXDB48OAYPHhz77rvvdusrVqxI/KxoAgBKkWiCEnf55ZfH6aefnnrOQQcdFIMHD45BgwZFt27dMp7z9ttvx/vvvy+aAIBaRzRBiTvttNPi1VdfjQkTJsSqVau2Wevbt29MmDAhOnTokHqNli1bxmeffVbuvXynCQAoRaIJaoFRo0bFqFGjYubMmbFhw4bYtGlTdO7cudxYioho3LhxbNiwoUL36dixY3VHBQCocUQT1CIHHnhghc+dMmVK3HDDDRUOpj59+kTbtm2rOhoAQI0lmoBtjB8/PkaNGhUvvfRSpT734x//OEcTAQAUlmgCIiLirrvuihtuuCEWLlxYpc+LJgCgVIkmIM4+++z4wx/+UOXPf//73/d9JgCgZIkmqMU+/fTT+NnPfhZ/+9vfqnUdu0wAQCmrW+gBgMKYNWtW9O3bt9rBFCGaAIDSJpqgFrr//vujX79+8fbbb5d7buPGjeOnP/1p4vrRRx8dbdq0yeZ4AAA1imiCWua6666Ln/70p7F58+bU89q0aRPXXnttfPTRR6lRZJcJACh1vtMEtcipp54a48aNK/e8c889N2699dYtv580aVLiuUOGDMnKbAAANZVoglpi6NCh8dBDD5V73i233BLnnXfelt8/++yz8d5772U897jjjoudd945WyMCANRIoglqgdtvv73cYNp5551j/PjxMWjQoG2OP/nkk4mf8WgeAFAb+E4TlLivvvoqfv3rX6ee07t375gxY8Z2wRQRsWjRosTPiSYAoDYQTVDirr/++vjggw8S14cOHRrTp0+Pbt26ZVz/5z//mfF4jx49onHjxlmZEQCgJhNNUMI++eST1F2mI488Mh544IHU+FmyZEnG4++99158+umn1Z4RAKCmE01Qwq6//vr48ssvM6517do19ftKEREbN26MDz/8MOPaypUr45JLLqn2jAAANZ1oghL15ptvbvPa8H93+eWXl3uN8s6ZOnVqpecCACg2oglK1F133ZW41q9fvxg+fHi511i1alXqevPmzSs9FwBAsRFNUKKee+65xLWK7DJFRLRo0SJ1/YwzzqjMSAAARUk0QQlav359vPzyyxnX2rRpEwMGDKjQdc4666zEtcsuuywuvfTSKs0HAFBMRBOUoNmzZyeunXvuuRW+zh577BHz58+Pvn37bjl2xBFHxPPPPx/XX399tWYEACgW9Qs9AJB9adF0wAEHVOpaXbt2jenTp8fXX38dH3zwQeyxxx7VHQ8AoKjYaYISdPfddyeuVTaavlG3bl3BBADUSqIJSsyoUaPijTfeSFxv2LBhHqcBACh+oglKyJo1a+K8885LPeeLL77I0zQAAKVBNEEJeeCBB+Lrr79OXP/Vr34VrVu3zuNEAADFTzRBCXnggQcS1wYNGhRXXXVVHqcBACgN3p4HJeL999+Pxx9/POPajjvuGFOmTMnzRAAApcFOE5SItF2myvxsJgAAtiWaoESkRdNPfvKTPE4CAFBaRBOUgNdffz3xB9r26dMnunfvnueJAABKh2iCEnDmmWcmrtllAgCoHtEERW7atGkxa9asxHXRBABQPaIJityvfvWrxLWjjz462rVrl8dpAABKj2iCIrdy5crEtWOOOSaPkwAAlCbRBEWubdu2iWvdunXL4yQAAKVJNEGR++qrrxLXOnTokMdJAABKk2iCIrZixYqYOXNmxrWePXuKJgCALBBNUMSmTp2auDZo0KA8TgIAULpEExQx0QQAkHuiCYrU5s2bE6OpU6dOsf/+++d5IgCA0iSaoEhNnTo1NmzYkHHNLhMAQPaIJihSHs0DAMgP0QRFatasWRmPt27dOg4//PA8TwMAULpEExSpZcuWZTzevHnzPE8CAFDaRBMUobVr18YXX3yRce24447L8zQAAKVNNEERStpliojYbbfd8jgJAEDpE01QhNKiqU2bNnmcBACg9IkmKEJ2mgAA8kc0QRH68MMPE9dEEwBAdokmKEJlZWWJa40bN87jJAAApU80QRFq1KhR4tqGDRvyOAkAQOkTTVCEGjZsmLi2cePGPE4CAFD6RBMUITtNAAD5I5qgCNlpAgDIH9EERchOEwBA/ogmKEJ2mgAA8kc0QRGy0wQAkD+iCYqQnSYAgPwRTVCE7DQBAOSPaIIiZKcJACB/RBMUITtNAAD5I5qgCNlpAgDIH9EERWjTpk2JaxMnToyysrI8TgMAUNpEExShKVOmJK793//7f+Ooo47K4zQAAKVNNEERmj9/fur6U089FTNnzszTNAAApU00QRFq3759ued8/PHHuR8EAKAWEE1QhC6++OJo1apV6jkHHnhgnqYBAChtogmKULNmzeL111+Prl27Zly//vrr49vf/naepwIAKE31Cz0AUDW77rprzJ8/P5544om49957o06dOtG2bds45JBD4uijjy70eAAAJUM0QZE76qijvC0PACCHPJ4HAACQQjQBAACkEE0AAAApRBMAAEAK0QQAAJBCNAEAAKQQTQAAAClEEwAAQArRBAAAkEI0AQAApBBNAAAAKUQTAABACtEEAACQQjQBAACkEE0AAAApRBMAAEAK0QQAAJBCNAEAAKQQTQAAAClEEwAAQArRBAAAkEI0AQAApKhf6AEAKE0bN26M1atXx5o1a2L16tVbfnXr1i3atWtX6PEAoMJEEwBZs3Tp0rjrrrtiypQp8fLLLyeeV6dOnWjfvn384he/iHPPPTePEwJA5Xk8D4CsGDduXHznO9+JK6+8MjWYIiLKyspi8eLFcd5558WOO+4YN998c56mBIDKE00AVNuHH34Y55xzTnz11VeV/uzq1avjggsuiM6dO8dDDz2Ug+kAoHpEEwDVNmzYsFi7dm21rrFo0aIYOnRoXHHFFVmaCgCyw3eaAKi0l156KaZMmRKvvPJKLF68ON56662sXfu6666Ljz76KMaMGZO1awJAdYimPJk+fXq89957hR4DoFpeffXVmDJlSsycOTOn9xk7dmw89dRTcfPNN0eTJk1yei+ATNq3bx9dunQp9BjUEKIpT04//fRCjwBQVJYsWRI/+tGPCj0GUIsdfvjhceedd0anTp0KPQoF5jtNWVTd5/kBAKg5nnnmmTjvvPMKPQY1gGjKokWLFhV6BAAAsuivf/1rrF69utBjUGCiCQAAIIVoyiLPuwIAlJZjjjkmmjdvXugxKDDRlEVNmzYt9AgAAGTJ4YcfHrfeemuhx6AG8Pa8PBkzZky0a9eu0GMAVMibb74Z559/fqHHyOiqq66KAw88sNBjACXOK8fZmmjKk379+vl/PKAoLFmyJM4666xCj5Fo2rRp8d///d+FHgOAWsTjeQBssW7duhg2bFgsXry40KMkeumll+Kpp54q9BgA1CKiCYAthg0bFrNmzSr0GOV6/PHHCz0CALWIaAIgIiLOP//8ePTRRws9RoVMnjy50CMAUIuIJgBi+fLlccsttxR6jApbuHBhPPDAA4UeA4BaQjQBEJ9//nmhR6i0Yoo8AIqbaAIgWrVqVegRKm3mzJkxe/bsQo8BQC0gmgAo2rfRde/evdAjAFALiCYA4uGHHy70CJXWq1ev2GGHHQo9BgC1gGgCIN5+++1Cj1Bpl1xySaFHAKCWEE0AxFtvvVXoESqlW7duMWzYsEKPAUAtIZoAarnXX3891q1bV+gxKuWyyy4r9AgA1CKiCaCWK7ZdpqZNm8bw4cMLPQYAtYhoAqjlvv7660KPUCmHHnpooUcAoJYRTQC1XJcuXQo9QqUMHjy40CMAUMuIJoBarlevXnHmmWcWeowK+973vlfoEQCoZUQTADF69OjYb7/9Cj1GuXbaaafo0aNHoccAoJYRTQBERMSdd94ZdevW7H8sXHHFFYUeAYBaqGb/0xGAvOnVq1f88Y9/LPQYiQ455JC48MILCz0GALWQaAJgi1NPPTUOOeSQQo+xnUMPPTSef/75Qo8BQC1Vv9AD1BbTp0+P9957r9BjAJTr8ssvj7lz58bKlSsLPUpE/CuYLrvssnj88ccLPQpQC+23337RokWLQo9BgYmmPDn99NMLPQJAUXr++eftMgEFddlll8UPf/jDQo9BAYkmAABI8etf/zrq1KlT6DEoIN9pAgCAcsycObPQI1BAogkAACCFaHEXiEYAACAASURBVAIAgHIceOCBhR6BAhJNAACQ4rLLLovBgwcXegwKyIsg8mTMmDHRrl27Qo8BkBUvvfRSPPLII/HKK69U+rPdu3ePCy64INq0aZODyQCy65tXjs+aNavQo1BAoilP+vXrF126dCn0GABZ0b9//7jiiiti7ty58dhjj8UjjzwSL7/8cmzevDnj+S1btowjjjgiTjzxxBg0aFCepwWA6hFNAFRZjx49okePHnHJJZfE119/HS+++GJ89NFH0aJFi2jZsuWWf23YsGGhRwWAKhNNAGRF3bp1o1+/foUeAwCyzosgAAAAUogmAACAFKIJAAAghWgCAABIIZoAAABSiCYAAIAUogkAACCFaAIAAEghmgAAAFKIJgAAgBSiCQAAIIVoosbYtGlToUcAAIDt1C/0ANQumzZtirFjx8YTTzwR7733XqxatSpWr14dq1ativXr10eLFi2ia9eusddee2351+7du8fuu+9e6NEBAKilRBN5MW/evLjrrrti7NixsWrVqsTzPvvss5g+fXpMnz59m+MHHHBADBo0KAYNGhQ9evTI9bgAALCFaCLnLrroorjpppuqdY3Zs2fH7NmzY8SIEbH33ntvCaiDDjooS1MCAEBmvtNETg0fPrzawfTv3njjjbjhhhuib9++0b59+zjnnHPizTffzOo9AADgG6KJnPnFL34R9913X07vsWTJkhg1alR069YtLrzwwlixYkVO7wcAQO0jmsiZsWPH5vV+v/vd76JDhw5Z39kCAKB2850mcuLdd9+NNWvWpJ7TpEmTOPzww6N58+ax4447xpw5c6J169bx5ptvxrvvvlul+65cuTIuuuiiGDNmTFxxxRUxfPjwKl0HAAC+IZrIiY4dO0b9+vVj8+bNGdfHjRsXJ598cuLn161bF2+99VY899xzMXXq1Hjuuecqdf8FCxbESSedtCWejjzyyEp9HgAAvuHxPHJmp512yni8UaNGqcEU8a9dqH333TcuuOCCePbZZ2PZsmUxevToGDhwYKVmeP755+MHP/hBHH/88TFv3rxKfRYAACJEEzl04IEHZjzeoEGDjMcffvjhGDFiRPz5z3/ebq1NmzZx5plnxtSpU2PVqlVx7733Rtu2bSs8y5///Ofo3r17nH/++fHpp59W+HMAACCayJlOnTplPL5mzZr44osvtjnWv3//+NGPfhTXXnttHH/88XHooYcmXrd58+Zx4oknxgcffBCTJ0+OAw44oMIz3XLLLdGhQ4e48cYb46233oo5c+bE2rVrK/x5AABqH9FEznTu3DlxbdGiRVv+/ZVXXhlPPPHENusvvPBCXHbZZeXeY/DgwTFr1qwYPXp07LHHHhWaa82aNXHppZdG165do3fv3tG8efPo2bNnDBgwIPr06RPHHntsnHrqqTFjxowKXQ8AgNImmsiZpJ2miIh33nlny7+fPXt2xnPuuOOO2LhxY4XudeaZZ8bixYvj6quvjoYNG1ZqzrKyspg7d2489thjMXv27Jg8eXKMGzcu+vXrl/OfMwUAQM0nmsiZiu40tWnTJuM5X3zxRTz44IMVvl/dunXjyiuvjMWLF8dZZ51V8UFTXH/99Vm5DgAAxUs0kTOdOnWKOnXqZFzbeqepd+/eidd46KGHKn3f3XbbLW6//fZ45ZVX4rjjjqv057c2f/78Cu92AQBQmkQTOVO3bt3E3aatd5rSdqRee+21Kt9/3333jb/85S/x6KOPJr7Jrzx77LFHpR/3AwCgtIgmcirpe01b7zSl/eDZ9957L0aNGlWtGY455ph48cUXY8yYMdGhQ4dKffbiiy+u1r0BACh+oomcStpFWrZsWaxZsyYiIurXrx+//OUvE69xzTXXbDm3Ok477bR4991346677orhw4fHt7/97cRz+/btGw8++GD8n//zf6p9XwAAilv9Qg9AaSvvDXo9e/aMiIgRI0bE3XffHZ999tl25y1fvjxGjhwZN954Y1ZmOuWUU+KUU06JiIgFCxbEe++9F2+//XY0atQoWrRoEQcccEDsvvvuWbkXAADFTzSRU+W9Qe+baNppp51ixIgR8Ytf/CLjub/5zW/i5JNPjq5du2Z1vi5dukSXLl2if//+Wb0uAAClw+N55FRFf1ZTRMR55523JaIyueaaa7I2FwAAVJRoIqcq+rOavnHllVcmnj9x4sR44oknsjIXAABUlGgipxo0aBAdO3bMuLZkyZLtjh133HExePDgxOvZbQIAIN9EEzm36667Zjye6aUPEf96KUSSGTNmxJgxY7IyFwAAVIRoIudatmyZ8finn36a8fh+++2X+qrva665JjZv3pyV2QAAoDyiiZxr0aJFxuNJO00R//puU9OmTTOuvf/++zFy5MiszAYAAOURTeRc0k7TmjVrYv369RnXWrdunfpSiJtuuik2bdqUlfkAACCNaCLnknaaIpIf0YuIuPjii2OvvfbKuLZu3bp45JFHqj0bAACURzSRc0k7TRHp0RSR/gpy0QQAQD6IJnIuLZrSvtcUEXHCCSfEbrvtlnFt8uTJUVZWVq3ZAACgPKKJnKvq43nf+OEPf5jx+Nq1a+02AQCQc6KJnKvOTlNExLHHHpu4JpoAAMg10UTOVXen6aijjorWrVtnXJs8eXKV5wIAgIoQTeRcdXeaIpIf0Vu5cmVMnTq1SnMBAEBFiCZyrk6dOom7TRXZaYpIf0TvmWeeqdJcAABQEaKJvEjabapoNP3nf/5n1K2b+W/XpUuXVnkuAAAoj2giL95///2Mx9evX1/ha7Rv3z7j8Q0bNlRlJAAAqBDRREG1a9euwuc2btw44/HKhBcAAFSWaCLnli1bFuvWrcu41qFDhwpfp1GjRhmP22kCACCXRBM59+677yaudezYscLXSdppEk0AAOSSaCLnshVNSTtNHs8DACCXRBM5t3jx4sS1yjyel7TTtGjRokrPBAAAFSWayLmkaGrYsGF85zvfqfB1OnfunPH46tWr47HHHqvSbAAAUB7RRM41aNAg4/Gkn7uU5D//8z8T16ZNm1apawEAQEWJJnLu29/+dsbj69evjxUrVlT4OgMGDIhmzZplXBNNAADkimgi55KiKSLi448/rtS1knabFi1aFK+++mqlrgUAABUhmsi5bEbTgAEDEtfsNgEAkAuiiZzLx05ThGgCACA3RBM5l81oat26dRx66KEZ11588cVYunRppa4HAADlEU3kXNOmTRPXNm3aVOnr2W0CACCfRBM5t3bt2sS1tKBKIpoAAMgn0UTOrVmzJnEt6RXiafbZZ5/o2rVrxrVp06ZVafcKAACSiCZyLts7TRHJu00bN26Mp59+ukrXBACATEQTOTdjxozEtebNm1fpmmmP6L322mtVuiYAAGQimsi5sWPHJq516tSpStc8+OCDE9dEEwAA2SSayKnp06fHu+++m3GtWbNm0b59+ypdt0GDBvEf//EfGddEEwAA2SSayKl58+Ylrv3kJz+p1rV79uyZ8fiCBQtSXz4BAACVIZrIqbZt2yau/fKXv6zWtZOiKcJuEwAA2SOayKlBgwbF0Ucfvd3xW2+9Nbp161ata/fo0SNxbe7cudW6NgAAfKN+oQeg9P3tb3+Lq6++Ov76179GkyZN4uc//3mccMIJ1b6unSYAAPJBNJEXV111VVx11VVZveYuu+wSHTt2zPiiCdEEAEC2eDyPopb0iJ5oAgAgW0QTRS3pEb3Nmzf7XhMAAFkhmihqvtcEAECuiSaKWlo0LVy4MI+TAABQqkQTRW2PPfaIpk2bZlxbtGhRnqcBAKAUiSaKXqdOnTIez/RWPQAAqCzRRNHr2LFjxuN2mgAAyAbRRNFL2mn67LPP4vPPP8/zNAAAlBrRRNFL2mmK8IgeAADVJ5ooekk7TREe0QMAoPpEE0XPThMAALkkmih6dpoAAMgl0UTRq1u3buJuk50mAACqSzRREpJ2m+w0AQBQXaKJkpC00/TPf/4zNm7cmOdpAAAoJaKJkuB7TQAA5IpooiR4gx4AALkimigJdpoAAMgV0URJSNtpev/99/M4CQAApUY0URJ23HHHaN68eca15cuX53kaAABKiWiiZLRq1Srj8U8++STPkwAAUEpEEyUjKZrsNAEAUB2iiZLRunXrjMdFEwAA1SGaKBkezwMAIBdEEyUjKZq+/PLLWL16dZ6nAQCgVIgmSkbS43kRHtEDAKDqRBMlI2mnKUI0AQBQdaKJkpEWTb7XBABAVYkmSobH8wAAyAXRRMnweB4AALkgmigZHs8DACAXRBMlo3HjxrHjjjtmXLPTBABAVYkmSkrS95pEEwAAVSWaKClJj+h5PA8AgKoSTZSUpGiy0wQAQFWJJkqKx/MAAMg20URJSdppWr9+faxatSrP0wAAUApEEyXFa8cBAMg20URJSXo8LyLi1VdfzeMkAACUCtFESdlzzz0T15588sk8TgIAQKkQTZSUAw44IHbdddeMa7Nnz87zNAAAlALRRMmpU6dOxuOrV6/O8yQAAJQC0UTJ+da3vpXxeLt27fI8CQAApUA0UXI++OCDjMdFEwAAVSGaKCkrV65M/HlMogkAgKoQTZSUpF2mCNEEAEDViCZKimgCACDb6hd6AMgm0QQA2ffCCy/EpEmT4rPPPotPPvkkOnXqFGeeeWb06tWr0KNBXogmSopoAoDsKSsri4EDB8a0adO2Of7kk0/GvffeG9OnT48ePXoUaDrIH4/nUVKSoql+/frRpk2bPE8DAMXtsssu2y6YvrFmzZq4/vrr8zwRFIZooqR43TgAZM8999yTur5gwYI8TQKFJZooKaIJALLj0UcfjY8++ij1nO7du+dpGigs0URJEU0AUH3z58+Pk046KfWcfffdN+688848TQSFJZooGatXr44vvvgi41rbtm3zPA0AFK+TTjop8Z+pERGdOnWKp59+OnbYYYc8TgWFI5ooGUuXLk1cs9MEABXzP//zPzFnzpzE9f79+8c777wTO++8cx6ngsLyynFKhteNA0D1LFq0KK688srE9T333DMmTJiQx4mq5/nnn4/Zs2fHLrvsEoMGDYrWrVsXeiSKlGiiZIgmAKi6GTNmxPHHHx9r167NuF6nTp2YMGFCtGrVKs+TVcyXX34ZH3744ZZf1157bcydO3fLeocOHeL++++PPn36FHBKipVoomSIJgComoceeihOOOGE2Lx5c+I5P/rRjwoSHKtWrdomhpJ+pX0HKyJi8eLFccghh8SGDRvyNDmlRDRRMpKiqU6dOqIJABKMGjUqzjnnnNRzmjVrFuPHj8/5LC+++GLMmDEjZsyYEfPnz48PP/ww1qxZk7Xrb9y4Mc4999y47bbbsnZNagfRRMlIehGEYAKAzP77v/87rr766nLPu+6666JJkyZZvffq1au3BNI3sZSPXaDyfvYUZCKaKBkrV67MeLymPnsNAIX0hz/8oULBNH78+HJ/ZlNFLVmyJCZNmhSTJk2KF198MSvXrKy99tqrIPeluIkmSsaqVasyHt9xxx3zPAkA1GwPPvhgnH322anntGjRIu6///74wQ9+UK17ffzxx1tC6ZlnnqnWtaqrY8eOcc011xR0BoqTaKJkiCYAKN/zzz8fw4YNSz1n7733jokTJ8Y+++xTpXusXLlySyhNmzatStfItmOPPTYefvjhQo9BkRJNlIzVq1dnPN68efM8TwIANdNbb70Vw4YNi7KyssRzjjzyyLj//vujZcuWlbr2hg0btoTSX/7yl+qOWq4dd9wx2rRps92v0aNHxzvvvLPNuX379hVMVItoomTYaQKAdMOGDYuPP/44cf3www+PJ598Ml588cX43e9+F2vXro1GjRpFw4YNE3/NnTs3li9fHpMmTcrqixz222+/6NatW8YwatOmTTRt2jTj537wgx/EL37xi3juueciIqJfv35xxx13ZG0uaifRREn48ssvY+PGjRnXRBMARFx//fXx+uuvJ67vs88+cfnll0e/fv1ixowZeZwsolGjRtG3b9846KCDom/fvtG3b98qPynSo0ePePbZZ2Pp0qWxcePG6NChQ5anpTYSTZSEpF2mCNEEABER999/f+Ja69atY8CAAXHkkUfmbZ7vfe970aJFi7j88svjoIMOyvr127Ztm/VrUnuJJkpC0veZIkQTAEyfPj3mzZuXuN6pU6f47W9/m/M5evbsGT/+8Y/jxz/+cXTt2jXn94NsEU2UBDtNAJAsbZepQYMGMXPmzJzde6+99toSSr169crZfSCXRBMlIS2avD0PgNpuwoQJiWubNm3K+v3at2+/JZQOPPDArF8f8k00URLsNAFAZp9//nnqY+zZsuuuu24JpcMOOyzn94N8Ek2UBNEEAJk98MADVfrcgAED4tZbb42OHTvGxo0bE39t2LAhdt555+jcuXOWJ4eaQzRREkQTAGTWuHHjSn/moosuit/85jdbfr/DDjvEDjvskM2xoKjULfQAkA3engcAmQ0cODD22WefSn3mt7/9bZx22mkxd+7cHE0FxUU0URK8CAIAMmvZsmU8++yzlQ6nu+66K3r27BmnnHJKrFy5MkfTQXEQTZSEpGiqV69eNGvWLM/TAEDN0rJly/jHP/4R48aNi7333rtSn7377rujd+/e8cQTT+RoOqj5RBMlISmaPJoH1CSPP/549OvXL7p06RJXXHFFla/z4IMPxsCBA6NLly5Rt27daNasWZx77rmpu+6lYvPmzYUeoaidfPLJMW/evJg4cWIcdNBBFf7cokWLon///nHttdfmcDqoubwIgpIgmoCa7p577omTTz55y++vu+66ePTRR+O1116r8DWWLFkSp59+ejz11FPbHF+7dm38/ve/j6lTp8att94agwcPztbYMW3atHj22Wfj888/j+bNm0e7du1i2LBhsfvuu2ftHkkWLlwYL730Urz88stb/nX9+vVRv379aNSoUTRu3DhatWoVhx56aPzsZz+rVATUdsOGDYthw4bFlClT4rbbbounn366Qp8bMWJEzJo1K26//fa8/D0ANUYZWXPHHXeURUTGX2+99VahxytpRxxxRMa/7vvss0+hRwMo++yzz8qaNm2a8b+npk+fXqFrTJkypax169aJ/5zZ+tcf//jHas/8t7/9rax3796J9xg7dmy175HJ448/XjZ06NCyVq1aVeg/69a/hg4dWrZixYqczFXqnnjiibKBAwdW+K91q1atyh566KFCj51Xf//73xP/ekycOLHQ45FjHs+jJNhpAmqySZMmxdq1azOuXX755eV+/rbbbovBgwfHJ598UqH7nXHGGdV669kFF1wQAwYMiFdeeSXxnGy/WW3OnDkxZMiQ6N+/fzz44IOxfPnySl/jwQcfjH79+sWcOXOyNldt8YMf/CCmTp0a06dPj6FDh5Z7/vLly2PIkCEV+vsXSoFooiSIJqAmW7FiReLaq6++mvrZRx99NM4777xK3/PSSy+t9GciIs4999y4+eabK3Tu2LFjq3SPf3fttddG7969Y9KkSdW+1htvvBF9+/aNN954IwuT1T59+/aNBx54IB599NHYY489yj3/17/+dZxzzjl5mAwKSzRREkQTUJN169YtcW316tVRVlaWce2jjz6Kn//851W652OPPRajR4+u1Gcuvvji+P3vf1/h88eMGRObNm2q7GjbGDlyZIwYMaJa1/h369evjzPOOCOr16xtjjnmmHjllVdiyJAh5Z47atSouPLKK/MwFRSOaKIkiCagJhs4cGA0aNAgcf3TTz/NePznP/95LFu2LPXadesm/6P8d7/7XcUGjIgrr7wyfvvb31b4/IiIL7/8Ml544YVKfWZrd955Z87+sD1z5swKv9yAzFq2bBkPPvhghf6+GDlyZCxevDgPU0FhiCaK3ldffZX4XQHRBNQUvXr1Slz77LPPtjs2cuTImDJlSuJnvvvd78YLL7wQL730UuI5CxcurND3e6677roYOXJkuedl8sEHH1Tpc88991yldtFatmwZAwYMiAMPPDDOPvvsOOOMM6JDhw6pn5kwYUKVZmNbF154YbzwwgvRtm3b1PNuueWWPE0E+eeV4xS9tJ9L0rx58zxOApDsxBNPjNmzZ2dce/PNN2Ovvfba8vtXX301dQdmzz33jGeeeWbLH2JPOOGEuP/++zOe++yzz8a+++6beK3f/e535f7MqD333DMWLlyYca2q0VSR3YsePXrERRddFPvvv39897vfzXjOfffdF8OHD8+4NnPmzCrNxvbuuOOOWLp0aeo5meIfSoWdJopeWjTZaQJqikMPPTRx7eWXX97m9+Xt+owePXqb/9X/tttuSzz32WefTVz7wx/+EBdeeGHqvU466aRYsGBB4np5f5BOMn369MS1Jk2axNy5c+O1116LE088MTGYIv4Vo0kvLPC4WHbcd9998ac//anc8wYNGpSHaaAwRBNFTzQBxaBHjx7RtGnTjGtbR9Ojjz4aDz/8cOJ1fvOb38Rhhx22zbGWLVvG/vvvn/H8pGgaM2ZMnH322akzDx06NMaPHx916tRJfDSrqjtN3/rWtxLX1q1bFy1atKjwtU499dSMxzdt2hRLliyp9Gxs6x//+Ee551x44YUxbNiwPEwDhSGaKHqiCSgW++23X8bjW0dT2i7T7rvvHhdddFHGtX8PqW+sW7cunn/++W2O3XvvveW+XW7w4MHxwAMPbPl9u3btMp6Xq8fzkr6rmknHjh0T1+w2VV/S/+2/cfHFF1f6JSJQbEQTRS/tByCKJqAmSYqmzz//PBYsWBCjR49O/N5TRMS0adMS15KiKWLb3aaHHnooTjrppNQ5jzrqqHjkkUe2OZb0B+eqPp43dOjQuOaaazKutWnTJvWRvH+X9kII0VR9J5xwQsZHIHfbbbe46aab4sYbbyzAVJBfoomil/Tl5Ih//a+yADVFUjRFRMyaNSt1l+n888+PffbZJ3H9sMMOizp16mRc+yaapk6dGkOHDk2d8ZBDDonJkydvd62kx/M++eST2Lx5c+o1k4wYMSL+53/+Z7vjlXlVeoRoyrUWLVrE5MmT44c//GG0bt069t9//7jpppvigw8+iF/+8peFHg/ywtvzKHpp0dS5c+c8TgKQLi2abr/99sRdm5133rncHwDbqFGjOOyww+KZZ57Zbu2FF16IqVOnxrHHHpt6jT59+sTkyZOjcePG260lfR8r4l8/+qF+/ar9keL888+Pgw46KB555JGoU6dOnHTSSdG1a9dKXSPtVdhJPwOLyunZs+d2u49Qm4gmit4777yT8Xj79u2jUaNGeZ4GIFnnzp2jdevW8cknn2y3NmvWrMTPjRgxIvXFCd9IiqaIfz0O9/XXXyd+tkePHvHII4/EzjvvXO59sq1Pnz7Rp0+fal2jXr168dVXX213PO2HCgNUlMfzKHpJO0177rlnnicBKF/ablMme/9/7d15jJXV/T/wD5sWFbAIA6IoKhaQKqJSKJtWEW1UaAUXFLVWpVqUuuGS2u9EEhvXqsEa6oYRxRVlUDDAlKiIQl2wmipqjVoXcEGxIkqt8vujqT+p9zkz986dO/cyr1dCwjyfc8/5kJBh3pznOU/fvnH22WfXa2zquab169dn1nr16hU1NTXRtWvXvHorF19//XXOwBQRBe+AAXyb0ERF++yzzzJPbhKagHKUb2iq67a8bxsyZEjmc01ZevToETU1NbHjjjvm9blyknqmyk4TUAxCExUt9TyT0ASUo3xC08iRI/N+900+83ft2jVmz54dvXr1qnNsbW1tXn2U0pdffplZE5qAYhCaqGgrV67MrDkEAihHe++9d73H5rPL9F+9e/eu17itt946Zs+eHf369avX+KxnRDt16tTkz4+mdprcngcUg9BERVu3bl1mrT4PTQOUWrdu3aJHjx51jttvv/1i6NChec9fn5Pn2rZtGzU1NXkdvvDtF/B+24ABA+o9R2NJveTcThNQDEITFS31xvgtttiihJ0A1F99bqE78sgjC5q7PjtNv/vd72L48OH1nvPDDz+ML774Imct63opPf/885m1rbbaqoSdAJsqoYmKltppSr1TBKAp9e3bt84xhYamunaaDjnkkLjwwgvzmjP1/fRHP/pRXnM1hv++vDeX/v37l7ATYFMlNFHR7DQBlaiuk+q6dOkS22yzTUFzf/rpp8n65MmT856zbdu2sdlmm+WspW6NK5Ws0NSuXbsYNmxYibsBNkVCExUtFZrsNAHlqq7QdNBBBxU89xVXXJFZ23rrrWPfffctaN727dvnvN7UoWnlypXx7LPP5qyl3lsFkA+hiYrm9jygEtUVmqqqqgqa9+WXX4577703s96tW7eC5o0o39CUujVv//33L2EnwKZMaKKiPfzwwzmvt2nTJvNWEoCm1lihadGiRcn6j3/844LmjajM0GSnCSgWoYmKlvWPeOfOnUvcCUD9tW7dOhmMCg1NS5cuTdZ33333guaNqLzQtP3228cee+xR4m6ATZXQREV77rnncl6v78saAZpKp06dMmvlGJratWuX83pThqYVK1bEa6+9lrNmlwkoJqGJivXyyy/H2rVrc9b23HPPEncDkJ+snZuIyPzelrJq1ap45ZVXkmMaY6eprtP6GpPnmYBSEZqoWFm7TBFCE1D+tttuu8xa1u5JypNPPpmsb7/99g26dbkcb8/zPBNQKkITFeuvf/1rZs3teUC522effTJrCxYsyHu+xrw1LyI7NH3xxRexfv36Bs1diK+//jpmzZqVs9a3b986D9sAyIfQRMXK2mlq165d9OrVq8TdAORn1113zaz97W9/y3u+Z555JllvrNAU0TS7TX/84x/j66+/zlmzywQUm9BExcoKTW7NAyrB9773vcxa9+7d855v2bJlyfqAAQPynvPbyi00XX/99Zm1ESNGlLAToDkQmqhI7777bqxcuTJnza15QCX4t6RKGwAAFp5JREFU6U9/mvk+uVNPPTWvue66667k4RFdu3aNsWPH5jXn/yqn0DRz5sxYsWJFzlrv3r1j9OjRJe0H2PQJTVQkh0AAla5ly5ZxzDHHfOd6x44d44QTTshrrg8//DBZnzBhQl7z5VJOoSm1yzRx4sQSdgI0F0ITFUloAjYF06dPj1/+8pfffN2vX7+YN29etGnTJq95Bg8enFnbeeed43e/+13BPf7X559/nlkrZWiaP39+LFmyJGetc+fO8etf/7pkvQDNh9BERVq+fHlmTWgCKsnNN98c69atizfeeCOee+65GDhwYN5z7LXXXjmD0U477RT3339/tG7dusF9vv766w2eoxjq2mVq2dKPNkDxNfy7KDSBxx57LOf1PffcM1q1alXibgAapm3btg0+InvKlCnRp0+fmDZtWqxatSqGDBkSV1xxRWyzzTZF6fH999/PrPXs2bMoa9Tlsssuizlz5uSstWzZ0i4T0GiEJirO8uXLM//xHjp0aIm7ASgf48aNi3HjxjXK3Fkvz62qqoo+ffo0yprftmDBgrjgggsy6xMnTmzQy3sBUuxhU3EeffTRzNq+++5bwk4Amoe1a9fG008/nbNWyPHo+Vq2bFmMGTMmOcYuE9CYhCYqTtateRERw4cPL2EnAM3Dyy+/nFn77LPPGnXtFStWxJgxY5JHqh933HHRu3fvRu0DaN6EJipOVmjq379/VFVVlbgbgE3f+vXrM2sdO3ZstHVXrlwZY8aMiXfeeSdzzG677RZXX311o/UAECE0UWGefvrpWL16dc6aXSaAxjF48ODYfffdc9ZOOumkRlnzs88+i8MPPzxefPHFzDHbbbddzJo1q2iHXQBkEZqoKKlb8zzPBNB4HnjggRg2bNhG1yZNmrTRe6aKacyYMbF06dLM+lZbbRWzZs1yWx5QEk7Po6KkDoGw0wTQeHbZZZd47LHH4plnnonVq1fHLrvsErvsskujrHXUUUfF/Pnzk2Puv//+gt5pBVAIoYmKkrXTtM8++7g9A6AE9t5776LP+c4773xz0MP//d//xT333JMcf++998aBBx5Y9D4AsghNVIxly5bFmjVrctbsMgFUlhUrVsTtt98et99+e7z55pv1/txNN90UY8eObcTOAL5LaKJivPHGG5m1bbfdtnSNAFCwjz/+OI4//vh46KGHCvp8TU1NbNiwIUaNGuXEVKBkHARBxUgdOfu/DycDUH5ee+212H333QsOTBERDz74YJxyyinRpUuXOPDAA2Pq1Kl57VQBFEJoomI8/vjjTd0CAA1w2mmnJf8DLF+1tbUxadKk6NGjRwwdOjQuv/zyWLFiRdHmB/gvoYmKsXz58sxanz59StgJAPm66KKLYuHChY02/5IlS+L888+PPn36xD777BNTpkyJ5557rtHWA5oXoYmKMG/evMxnmg4++OBo3759aRsCoN4++OCDuOSSS0q23jPPPBPV1dXRv3//6Nu3b1x44YXx6KOPxtdff12yHoBNi4MgqAh33HFHZu3YY48tYScA5Ov222/P+zPdunWLnXbaKV555ZX44IMPCl77xRdfjBdffDEuvfTS2GyzzWL48OExbNiwb361bu1HIaBuvlNQ9tasWRMzZ87MWWvfvn0cc8wxJe4IgHzke8LpgAEDYuHChdGhQ4eIiHjiiSdizpw5MWfOnHjppZcK7uNf//pX1NbWRm1tbUREtGnT5pvwVFVVFQcddFB8//vfj44dOxa8BrBpEpooe1mBKeI/u0wtW7rLFKCcDRo0qN5jf/CDH8SsWbO+CUwREYMHD47BgwfHpZdeGsuXL/8mQD377LMN6uvLL7+MRYsWxaJFiza63qJFi+jYseM3Aerbv//2tV133TUGDx7coB6AyiA0UfZmz56dWbPLBFD+evToEaeffnpcd911yXHdu3ePWbNmRffu3TPH9O/fP/r37x/V1dXx0ksvfROgnnjiiaL1u2HDhli9enWsXr26zrF777133HrrrfHDH/6waOsD5cd/0VP2Fi9enPN6v379YujQoSXuBoBC/OEPf4gBAwZk1sePHx9Lly7NK3z06dMnzj///FiyZEm8/vrrce2118YBBxxQjHbr7Zlnnomzzz67pGsCpSc0UdaWLFkSX3zxRc7aIYccUuJuAChUmzZtYuHChXH55ZfHvvvuGx07dow2bdrEAQccEA899FDMmDEjunXrVvD8PXr0iEmTJkVtbW2sWrUqbrjhhjj00EOL+CfItnDhwvjnP/9ZkrWApuH2PMpa1i5TRNhlAqgwHTp0iMmTJ8fkyZMbdZ0uXbrEKaecEqecckp8/vnnsXjx4li8eHE89thjsXjx4tiwYUPR12yMOYHyITRR1h5//PHMmtAEQF3atm0bI0eOjJEjR0ZExPr16zcKUIsXL46vvvqqQWv87Gc/2+jgCmDTIzRR1rJC08CBA6Ndu3Yl7gaASrf55pvHiBEjYsSIERHxnxP0lixZEm+99VZ89NFH8fHHH8dHH3200e+/fe1/A9bo0aNj+vTpTfFHAUpIaKJsPfXUU/HJJ5/krNllAqAY2rRpE/vtt1+9x3/yySffBKjtt98+unTp0njNAWVDaKJspZ5nGjZsWAk7AYD/6NChQ3To0CF22mmnpm4FKCGn51G2PM8EAEA5EJooW1mhqX///rHNNtuUuBsAAJoroYmydN9998UHH3yQs2aXCQCAUhKaKEvXXHNNZk1oAgCglIQmyk5NTU0sWbIkZ23LLbeMww47rMQdAQDQnAlNlJ3ULtOZZ54Zbdu2LWE3AAA0d0ITZeXhhx+ORx55JGdts802izPPPLO0DQEA0OwJTZSVunaZOnXqVMJuAABAaKKM1NbWxoIFC3LWWrRoYZcJAIAmITRRNuraZdp2221L2A0AAPyH0ERZePTRR2Pu3LmZdbtMAAA0FaGJspDaZZo4cWLssMMOJewGAAD+P6GJJrd06dKYPXt2Zt0uEwAATUloosndddddmbUJEyZEz549S9gNAABsTGiiyd13332ZNbtMAAA0NaGJJjV//vx45513ctaOOOKI6NOnT4k7AgCAjQlNNKnULtPYsWNL2AkAAOQmNNGkskLTlltuKTQBAFAWhCaazAMPPBBr1qzJWRs7dmy0bOmvJwAATc9PpTSZe++9N7N2xBFHlLATAADIJjTRJL744ovMW/OqqqrikEMOKXFHAACQm9BEk6iuro4vv/wyZ82zTAAAlBOhiZJbtGhRXH755Zl1oQkAgHIiNFFy55xzTmatV69e8ZOf/KSE3QAAQJrQREnNmDEjnnvuucz6b3/72xJ2AwAAdROaKKm77747szZ+/Pg47rjjStgNAADUTWiiZN5+++2YO3duzlqrVq3iqquuKnFHAABQN6GJkkntMp133nlRVVVVwm4AAKB+Wjd1AzSthx56KJ599tno3r17nHjiiY26Vio0HXXUUY26NgAAFEpoasbGjh0bs2bN+ubrqVOnxh133BF9+vQp+lq1tbXx1FNP5awNGjQo+vXrV/Q1AQCgGNye10xNnTp1o8AUEbF8+fIYPnx4LFiwoFHWy2KXCQCAciY0NVNPPvlkzusffvhhHHTQQTF//vyirTVlypSYM2dOZl1oAgCgnAlNzVTnzp2T9cmTJxdlnYceeiiqq6sz66NGjYptt922weu8+uqrccIJJ0TPnj1j2LBh8eCDDzZ4TgAAiBCamq1x48Yl6y+88ELcc889DVrj3XffjQkTJiTHnHfeeQ1aIyJi9erVMWTIkLjtttvitddei8cffzxGjRoVs2fPbvDcAAAgNDVTgwYNijvvvDNatGiROSbr4Ib6uvDCC2PlypWZ9csuuyyGDBnSoDUiIq688sr44IMPvnP9hhtuaPDcAAAgNDVjRx99dCxevDhatsz916Cmpqbgud9444247bbbMutHHXVUUXaZIv7zHFYuWc9tAQBAPoSmZm7IkCGZuz2vvvpqwbfo3XjjjZm1XXfdtai7QK+88krO62vWrImPP/64aOsAANA8CU3Esccem1lLhZ+Um266KbN21llnRfv27Qua93/dfffd8dhjj2XW169fX5R1AABovoQmYsKECdGpU6ectdra2li6dGle8918883x/vvv56yNGDEiTjvttLx7zGXmzJlx9NFHZ9a7desWXbt2LcpaAAA0X0IT0aJFi+Qpd/nuNqXGn3zyyXnNlWXGjBnJHbKIiHPOOacoawEA0LwJTUREJEPTLbfckjwF79vuvPPOWLZsWc7azjvvXJQX2d56661x/PHHJ8cceuihcfbZZzd4LQAAEJqIiIgdd9wxxo8fn1mvz8ENM2bMiGOOOSazfsoppxTU27fddNNNceKJJybH9OzZM66//voGrwUAABFCE9+SCjV1haYbb7wxufvTokWLBt+a96c//anO4NW7d++YN29edO/evUFrAQDAfwlNfGP48OExfPjwnLV33303pk+fnrP23nvvxVlnnZWc++STT848bKI+rr/++jj11FOTY/r27Rtz586NXXfdteB1AADgfwlNbCTf3aZPP/00hg0bFp999lnB89Zl6tSpMXHixOSYPfbYI+bOnRs777xzwesAAEAuQhMbGT9+fPTo0SNnbenSpfHnP/95o2vXXXddvPrqq8k5zz///BgwYEBB/Vx99dUxadKk5Jj+/fvHvHnzYscddyxoDQAASBGa+I58dptqa2szx7Zt2zZqamri0ksvLaiPK6+8ss4T8AYMGBDz5s2L7bbbrqA1AACgLkIT3zFhwoRo0aJFzto999yz0c5S6sW31157bYwaNaqgHi677LKYPHlycsygQYNi7ty5XmALAECjEpr4jk6dOiXf23TDDTfEyy+/HGeccUasW7cu55iRI0cW/BzTJZdcEhdccEFyzJAhQ2Lu3LnRuXPngtYAAID6EprIKRWa7rrrrujdu3dcd911mWPqOrghy5QpU+Kiiy5Kjhk+fHjMmzcvOnbsWNAaAACQD6GJnPbaa6/Yfvvtc9befvvtOj8/aNCgvNesrq6O6urq5Jj9998/5s2bF+3bt897fgAAKITQRKZCb6/r3bt3VFVV5fWZiy66KKZMmZIcc+CBB8bcuXNjyy23LKgvAAAoROumboDyVegR3gMHDsxr/AUXXBCXXXZZcszBBx8cc+bMiTZt2hTUEwAAFEpoIlOhoWnMmDH1Hjt58uS48sork2MOPfTQmDNnTuaJfgAA0JjcnkemHXbYIbO255575rz+i1/8Ig477LA65163bl2MGzeuzsA0evToePDBBwUmAACajNBEptRO08CBA+Paa6+NqqqqaNeuXfTv3z9uuummmD59ep3z/uUvf4mBAwfGXXfdlRx3+OGHx+zZs/PuGwAAisnteWRq1apV7LDDDvGPf/zjO7U333wzpk2bFpMmTcprzltuuSVOOumkOscdccQRcc899+Q1NwAANAY7TSRl7Ta9+eabec919tln1yswjRs3TmACAKBsCE0kFSM0vfXWWzFy5Mi4+uqr6xw7fvz4mDlzZr3nBgCAxiY0kfTiiy/mvL5u3bpYt25dnZ9ftGhRDBw4MBYuXFjn2IsvvjhmzJiRd48AANCYPNNE0rvvvpvzeocOHWKLLbZIfvbJJ5+M0aNHx9q1a5PjOnToELfcckscfvjhBfcJAACNxU4TmdasWROrVq3KWTvkkEOSn73qqqti2LBhdQamIUOGxLJlywQmAADKltBEpvfeey+zNmjQoJzX77///ujXr1+ce+658dVXXyXn/9WvfhWPP/549OrVq0F9AgBAYxKayJQKTVVVVRt9/eyzz8bo0aNjzJgx8fzzz9c599SpU2PatGkN7hEAABqbZ5rI9P7772fWunTpEhERH3/8cVx88cVx7bXX1mvOFi1axLRp02LChAlF6REAABqb0ESm1E5Tly5d4pprromLL7441qxZU+85b7zxxnq9qwkAAMqF0ESm1E7TueeeG/Pmzav3XIMGDYrq6uo4+OCDi9EaAACUjNBEpo8++iizVt/A1LVr16iuro5TTz21WG0BAEBJCU1kateuXYM+f95550V1dXWd73MCAIByJjSRqXPnzgV97sgjj4zq6urYbbfditwRAACUntBEpn79+uU1fsCAAVFdXV3ni28BAKCSCE1k2n///aNVq1Z1vqQ2IuLSSy+N888/vwRdAQBAaXm5LUk9e/ZM1rfZZpuoqakRmAAA2GQJTSSdccYZmbWhQ4fG0qVLY9SoUSXsCAAASsvteSRNnDgxPvzww5g2bVqsWrUq2rZtG/vss0+ceOKJceKJJzZ1ewAA0OiEJupUXV0d1dXV8e9//ztat/ZXBgCA5sXtedSbwAQAQHMkNAEAACQITQAAAAlCEwAAQILQBAAAkCA0AQAAJAhNAAAACUITAABAgtAEAACQIDQV0W677ZbzeqtWraJXr14l7gYAACgGoamIhg0bFvvvv/93rk+ePLkJugEAAIqhdVM3sKmZPXt2/OY3v4mFCxdGu3bt4rjjjosLL7ywqdsCAAAKJDQVWbt27eKWW25p6jYAAIAicXseAABAgtAEAACQIDQBAAAkCE0AAAAJQhMAAECC0AQAAJAgNAEAACR4T1MRPfroozF9+vR45ZVXmroVAACKaO3atU3dAk1IaCqSBx54IA4//PCmbgMAACgyt+cVSXV1dVO3AAAANAKhqQjWr18fL7zwQlO3AQAANAKhqQg233zz2H333Zu6DQAAoBEITUVy8cUXN3ULAABAI3AQRJH8/Oc/j0ceecTpeQAAm6C1a9d6HKMZa7Fhw4YNTd0EAACUs6+++ipat8693/D3v/89dtlllxJ3RCm5PQ8AAOrQqlWr+P3vf/+d6xMnThSYmgE7TQAAUE8zZ86MmpqaWL9+fYwYMSJOP/30pm6JEhCaAAAAEtyeBwAAkCA0AQAAJAhNAAAACUITAABAgtAEAACQIDQBAAAkCE0AAAAJQhMAAECC0AQAAJAgNAEAACQITQAAAAlCEwAAQILQBAAAkCA0AQAAJAhNAAAACUITAABAgtAEAACQIDQBAAAkCE0AAAAJQhMAAECC0AQAAJAgNAEAACQITQAAAAlCEwAAQILQBAAAkCA0AQAAJAhNAAAACUITAABAgtAEAACQIDQBAAAkCE0AAAAJQhMAAECC0AQAAJAgNAEAACQITQAAAAlCEwAAQILQBAAAkCA0AQAAJAhNAAAACUITAABAgtAEAACQIDQBAAAkCE0AAAAJQhMAAECC0AQAAJAgNAEAACQITQAAAAlCEwAAQILQBAAAkCA0AQAAJAhNAAAACUITAABAgtAEAACQIDQBAAAkCE0AAAAJQhMAAECC0AQAAJAgNAEAACQITQAAAAlCEwAAQILQBAAAkCA0AQAAJAhNAAAACUITAABAgtAEAACQIDQBAAAkCE0AAAAJQhMAAECC0AQAAJAgNAEAACQITQAAAAlCEwAAQILQBAAAkCA0AQAAJAhNAAAACUITAABAgtAEAACQIDQBAAAkCE0AAAAJQhMAAECC0AQAAJAgNAEAACQITQAAAAlCEwAAQILQBAAAkCA0AQAAJAhNAAAACUITAABAgtAEAACQIDQBAAAkCE0AAAAJQhMAAECC0AQAAJAgNAEAACQITQAAAAlCEwAAQILQBAAAkCA0AQAAJAhNAAAACUITAABAgtAEAACQIDQBAAAkCE0AAAAJQhMAAECC0AQAAJDw/wBbF9q38affAgAAAABJRU5ErkJggg==;" vertex="1" parent="1">
          <mxGeometry x="1206.99990234375" y="1081.000048828125" width="845" height="863" as="geometry" />
        </mxCell>
        <mxCell id="VPYLfWboq6FFPKXyFIXK-2" value="&lt;font style=&quot;font-size: 36px;&quot;&gt;D1&lt;/font&gt;" style="text;html=1;align=center;verticalAlign=middle;whiteSpace=wrap;rounded=0;" vertex="1" parent="1">
          <mxGeometry x="1599.5" y="1106" width="60" height="30" as="geometry" />
        </mxCell>
        <mxCell id="VPYLfWboq6FFPKXyFIXK-4" value="&lt;font style=&quot;font-size: 36px;&quot;&gt;D2&lt;/font&gt;" style="text;html=1;align=center;verticalAlign=middle;whiteSpace=wrap;rounded=0;" vertex="1" parent="1">
          <mxGeometry x="1207" y="1475" width="60" height="30" as="geometry" />
        </mxCell>
      </root>
    </mxGraphModel>
  </diagram>
</mxfile>
